<svg xmlns="http://www.w3.org/2000/svg" viewBox="0 0 50 35"><g fill="none" fill-rule="evenodd"><path fill="#D4E4FF" d="M24.721 3.882a18.908 18.908 0 0112.413 7.452 18.963 18.963 0 013.518 14.06A18.733 18.733 0 0136.245 35H7.637c-3.474-4.024-5.25-9.49-4.407-15.163a18.946 18.946 0 017.44-12.432 18.89 18.89 0 0114.038-3.523h.013z"/><path fill="#FC0" fill-rule="nonzero" stroke="#15C" d="M25.992 1h-8.504a.558.558 0 00-.557.558V3.61c0 .309.25.559.557.559h8.504c.307 0 .557-.25.557-.559V1.56A.558.558 0 0025.992 1z"/><path fill="#FFF" fill-rule="nonzero" stroke="#15C" d="M40.523 2.895H2.893C1.847 2.895 1 3.715 1 4.725v23.979c0 1.01.847 1.83 1.893 1.83h37.63c1.045 0 1.892-.82 1.892-1.83V4.726c0-1.011-.847-1.83-1.892-1.83z"/><path fill="#D4E4FF" d="M42 13.982V28.51c0 .987-.44 1.623-1.413 1.623H3.01c-.985 0-1.581-.52-1.581-1.52v-6.049c7.466.442 30.332.96 40.585-8.58H42z"/><path fill="#D4E4FF" d="M36.608 17.708h6.287v6.816h-6.287z"/><path fill="#FC0" stroke="#15C" stroke-linejoin="round" d="M45.967 23.277a8.403 8.403 0 01-6.91 3.596 8.42 8.42 0 01-5.957-2.471 8.445 8.445 0 01-2.468-5.967c0-4.362 3.319-7.958 7.557-8.4v8.906l7.765 4.323.013.013z"/><path fill="#FFA230" d="M45.332 23.407c-2.904 3.622-7.713 3.83-10.967 1.545l3.513-5.673 7.44 4.141.014-.013z"/><path fill="#FFF" stroke="#15C" stroke-linejoin="round" d="M40.574 9.01c2.235 0 4.378.889 5.958 2.471A8.445 8.445 0 0149 17.448a8.422 8.422 0 01-1.517 4.843l-7.764-4.323V9.062l.868-.04-.013-.012z"/><path fill="#D4E4FF" d="M48.235 15.099c.778 2.18.324 4.88-.894 6.633l-7.22-4.011 8.114-2.622z"/><path fill="#FC0" fill-rule="nonzero" stroke="#15C" d="M9.62 19.94H6.328c-.401 0-.726.326-.726.728v8.997c0 .4.325.727.726.727H9.62c.4 0 .726-.326.726-.727v-8.997a.726.726 0 00-.726-.727zm8.426-3.88h-3.293c-.4 0-.726.447-.726.999v12.333c0 .552.325 1 .726 1h3.293c.4 0 .725-.448.725-1V17.059c0-.552-.324-1-.725-1zm8.425-2.662H23.18c-.401 0-.726.529-.726 1.181V29.21c0 .652.325 1.182.726 1.182h3.292c.401 0 .726-.53.726-1.182V14.58c0-.653-.325-1.182-.726-1.182z"/><path fill="#FFA230" d="M9.892 24.822v4.362c0 .403.026.74-.298.74H6.587c-.324 0-.532.013-.532-.39v-4.712l3.837-.013v.013zm8.413-.39v4.778c0 .403.052.727-.272.727h-3.098c-.415 0-.454.117-.454-.675v-4.53l3.837-.3h-.013zm8.438.04v4.855c0 .324.04.584-.285.584l-3.15.013c-.414 0-.401-.195-.401-.597v-4.18l3.836-.675z"/><path stroke="#15C" stroke-linecap="round" d="M36.167 34.312l-3.059-3.778m-11.394 3.61v-3.61 3.61zm-13.533.168l3.046-3.778-3.046 3.778z"/><path stroke="#15C" d="M7.948 17.487a1.284 1.284 0 10-.002-2.568 1.284 1.284 0 00.002 2.568zm8.464-3.855a1.284 1.284 0 10-.002-2.569 1.284 1.284 0 00.002 2.569zm8.452-3.389a1.284 1.284 0 10-.002-2.568 1.284 1.284 0 00.002 2.568z"/><path stroke="#15C" stroke-linecap="round" d="M17.657 12.035l5.937-2.311M9.114 15.67l6.197-2.675-6.197 2.675z"/></g></svg>