<svg width="37" height="39" viewBox="0 0 37 39" fill="none" xmlns="http://www.w3.org/2000/svg">
<path d="M26.46 5.90015C26.9192 6.1609 27.4629 6.22943 27.9725 6.0908C28.4821 5.95216 28.9161 5.61762 29.18 5.16015C29.3983 4.77487 29.7383 4.47294 30.1467 4.30172C30.5551 4.13049 31.0088 4.09966 31.4366 4.21405C31.8645 4.32844 32.2422 4.58158 32.5107 4.93378C32.7791 5.28598 32.9231 5.71732 32.92 6.16015C32.92 6.69059 32.7093 7.1993 32.3342 7.57437C31.9591 7.94944 31.4504 8.16015 30.92 8.16015C30.3896 8.16015 29.8808 8.37087 29.5058 8.74594C29.1307 9.12101 28.92 9.62972 28.92 10.1602C28.92 10.6906 29.1307 11.1993 29.5058 11.5744C29.8808 11.9494 30.3896 12.1602 30.92 12.1602C31.973 12.1595 33.0074 11.8817 33.9191 11.3546C34.8307 10.8276 35.5876 10.0699 36.1137 9.15766C36.6398 8.24543 36.9166 7.21081 36.9161 6.15775C36.9157 5.10469 36.6381 4.0703 36.1113 3.15849C35.5845 2.24669 34.827 1.48959 33.9149 0.963283C33.0028 0.436973 31.9682 0.159988 30.9152 0.160156C29.8621 0.160325 28.8277 0.437642 27.9157 0.964243C27.0038 1.49084 26.2465 2.24818 25.72 3.16015C25.5877 3.38842 25.502 3.6406 25.4676 3.90215C25.4332 4.16371 25.451 4.42948 25.5197 4.68416C25.5885 4.93884 25.707 5.1774 25.8684 5.38609C26.0298 5.59479 26.2308 5.76949 26.46 5.90015ZM35.06 20.1602C34.535 20.092 34.0044 20.2348 33.5845 20.5572C33.1646 20.8796 32.8897 21.3554 32.82 21.8802C32.4003 25.2705 30.7554 28.3903 28.1952 30.6522C25.635 32.914 22.3362 34.1616 18.92 34.1602H7.73999L9.03999 32.8602C9.41249 32.4854 9.62157 31.9785 9.62157 31.4502C9.62157 30.9218 9.41249 30.4149 9.03999 30.0402C7.08989 28.0824 5.76276 25.5913 5.22577 22.8807C4.68879 20.1701 4.96596 17.3612 6.02239 14.8078C7.07881 12.2544 8.86723 10.0708 11.1624 8.53193C13.4575 6.99308 16.1567 6.16783 18.92 6.16015C19.4504 6.16015 19.9591 5.94944 20.3342 5.57437C20.7093 5.1993 20.92 4.69059 20.92 4.16015C20.92 3.62972 20.7093 3.12101 20.3342 2.74594C19.9591 2.37087 19.4504 2.16015 18.92 2.16015C15.5385 2.17426 12.2293 3.14063 9.37158 4.94854C6.51388 6.75646 4.22325 9.3328 2.76212 12.3824C1.30098 15.432 0.728435 18.8315 1.11008 22.1915C1.49172 25.5514 2.81211 28.7359 4.91999 31.3802L1.49999 34.7402C1.22247 35.0214 1.03448 35.3786 0.959731 35.7665C0.884983 36.1545 0.926828 36.5559 1.07999 36.9202C1.23003 37.2854 1.48482 37.598 1.81226 37.8187C2.1397 38.0394 2.52514 38.1582 2.91999 38.1602H18.92C23.3029 38.1608 27.5354 36.5622 30.8236 33.6643C34.1118 30.7664 36.2297 26.7684 36.78 22.4202C36.8166 22.1587 36.801 21.8925 36.7342 21.6371C36.6674 21.3816 36.5507 21.142 36.3908 20.9319C36.2309 20.7217 36.031 20.5454 35.8025 20.4129C35.5741 20.2805 35.3218 20.1946 35.06 20.1602ZM31.68 14.3002C31.3159 14.1391 30.912 14.0903 30.52 14.1602L30.16 14.2802L29.8 14.4602L29.5 14.7202C29.3201 14.9045 29.1775 15.1218 29.08 15.3602C28.9617 15.6096 28.9068 15.8844 28.92 16.1602C28.9142 16.4269 28.9618 16.6921 29.06 16.9402C29.1634 17.1802 29.3129 17.3976 29.5 17.5802C29.6869 17.7655 29.9085 17.9122 30.1522 18.0117C30.3958 18.1112 30.6568 18.1617 30.92 18.1602C31.4504 18.1602 31.9591 17.9494 32.3342 17.5744C32.7093 17.1993 32.92 16.6906 32.92 16.1602C32.9267 15.8978 32.8719 15.6375 32.76 15.4002C32.5451 14.9196 32.1606 14.5351 31.68 14.3202V14.3002Z" fill="#1155CC"/>
</svg>
