<svg width="41" height="41" viewBox="0 0 41 41" fill="none" xmlns="http://www.w3.org/2000/svg">
<path d="M40.38 11.8002C40.3896 11.6737 40.3896 11.5467 40.38 11.4202L36.38 1.42018C36.2238 1.02489 35.9457 0.689653 35.5861 0.463092C35.2264 0.236531 34.804 0.13043 34.38 0.16018H6.38C5.97945 0.159792 5.588 0.27969 5.25637 0.504342C4.92474 0.728994 4.66821 1.04805 4.52001 1.42018L0.520005 11.4202C0.510364 11.5467 0.510364 11.6737 0.520005 11.8002C0.453546 11.9115 0.406224 12.0332 0.380005 12.1602C0.402266 13.5427 0.782457 14.8958 1.48349 16.0875C2.18453 17.2793 3.18248 18.269 4.38 18.9602V38.1602C4.38 38.6906 4.59072 39.1993 4.96579 39.5744C5.34086 39.9495 5.84957 40.1602 6.38 40.1602H34.38C34.9104 40.1602 35.4191 39.9495 35.7942 39.5744C36.1693 39.1993 36.38 38.6906 36.38 38.1602V19.0402C37.5891 18.3421 38.5945 17.3398 39.2962 16.1329C39.9979 14.9259 40.3716 13.5563 40.38 12.1602C40.3987 12.0409 40.3987 11.9194 40.38 11.8002ZM22.38 36.1602H18.38V28.1602H22.38V36.1602ZM32.38 36.1602H26.38V26.1602C26.38 25.6297 26.1693 25.121 25.7942 24.746C25.4191 24.3709 24.9104 24.1602 24.38 24.1602H16.38C15.8496 24.1602 15.3409 24.3709 14.9658 24.746C14.5907 25.121 14.38 25.6297 14.38 26.1602V36.1602H8.38V20.1602C9.51894 20.1538 10.6434 19.9042 11.6781 19.4282C12.7128 18.9523 13.634 18.2608 14.38 17.4002C15.1307 18.2514 16.054 18.9332 17.0885 19.4002C18.123 19.8672 19.245 20.1087 20.38 20.1087C21.515 20.1087 22.637 19.8672 23.6715 19.4002C24.706 18.9332 25.6293 18.2514 26.38 17.4002C27.126 18.2608 28.0472 18.9523 29.0819 19.4282C30.1166 19.9042 31.2411 20.1538 32.38 20.1602V36.1602ZM32.38 16.1602C31.3191 16.1602 30.3017 15.7388 29.5516 14.9886C28.8014 14.2385 28.38 13.221 28.38 12.1602C28.38 11.6297 28.1693 11.121 27.7942 10.746C27.4191 10.3709 26.9104 10.1602 26.38 10.1602C25.8496 10.1602 25.3409 10.3709 24.9658 10.746C24.5907 11.121 24.38 11.6297 24.38 12.1602C24.38 13.221 23.9586 14.2385 23.2084 14.9886C22.4583 15.7388 21.4409 16.1602 20.38 16.1602C19.3191 16.1602 18.3017 15.7388 17.5516 14.9886C16.8014 14.2385 16.38 13.221 16.38 12.1602C16.38 11.6297 16.1693 11.121 15.7942 10.746C15.4191 10.3709 14.9104 10.1602 14.38 10.1602C13.8496 10.1602 13.3409 10.3709 12.9658 10.746C12.5907 11.121 12.38 11.6297 12.38 12.1602C12.3997 12.6855 12.3157 13.2095 12.1329 13.7023C11.9501 14.1952 11.672 14.6472 11.3145 15.0325C10.957 15.4179 10.5271 15.7291 10.0493 15.9483C9.57156 16.1675 9.05529 16.2905 8.53 16.3102C7.46914 16.35 6.43592 15.9667 5.65764 15.2447C5.27228 14.8872 4.96111 14.4573 4.74189 13.9795C4.52267 13.5017 4.3997 12.9855 4.38 12.4602L7.74 4.16018H33.02L36.38 12.4602C36.3042 13.4682 35.8495 14.4102 35.1074 15.0966C34.3653 15.783 33.3909 16.163 32.38 16.1602Z" fill="#1155CC"/>
</svg>
