<svg width="41" height="41" viewBox="0 0 41 41" fill="none" xmlns="http://www.w3.org/2000/svg">
<path d="M17.25 25.6602C17.4359 25.8476 17.6571 25.9964 17.9008 26.0979C18.1446 26.1995 18.406 26.2518 18.67 26.2518C18.934 26.2518 19.1954 26.1995 19.4391 26.0979C19.6829 25.9964 19.9041 25.8476 20.09 25.6602L28.25 17.5002C28.6266 17.1235 28.8382 16.6128 28.8382 16.0802C28.8382 15.5476 28.6266 15.0368 28.25 14.6602C27.8734 14.2835 27.3626 14.072 26.83 14.072C26.2974 14.072 25.7866 14.2835 25.41 14.6602L18.67 21.4202L16.25 18.9802C15.8734 18.6035 15.3626 18.392 14.83 18.392C14.2974 18.392 13.7866 18.6035 13.41 18.9802C13.0334 19.3568 12.8218 19.8676 12.8218 20.4002C12.8218 20.9328 13.0334 21.4435 13.41 21.8202L17.25 25.6602ZM38.83 0.160156H2.82999C2.29955 0.160156 1.79085 0.37087 1.41577 0.745943C1.0407 1.12102 0.829987 1.62972 0.829987 2.16016V38.1602C0.829987 38.6906 1.0407 39.1993 1.41577 39.5744C1.79085 39.9494 2.29955 40.1602 2.82999 40.1602H38.83C39.3604 40.1602 39.8691 39.9494 40.2442 39.5744C40.6193 39.1993 40.83 38.6906 40.83 38.1602V2.16016C40.83 1.62972 40.6193 1.12102 40.2442 0.745943C39.8691 0.37087 39.3604 0.160156 38.83 0.160156ZM36.83 36.1602H4.82999V4.16016H36.83V36.1602Z" fill="#1155CC"/>
</svg>
