<svg xmlns="http://www.w3.org/2000/svg" viewBox="0 0 39 39"><g fill="none" fill-rule="evenodd" transform="translate(1 1)"><path fill="#D4E4FF" stroke="#15C" stroke-linejoin="round" d="M2.107 36.927V8.363L18.44 0l16.076 8.512v28.489z"/><path fill="#FFF" d="M16.724 1.416L18.44.552l15.58 8.214v28.489h-1.777V9.66z"/><path fill="#FFF" d="M7.572 17.576h21.977V38H7.572z"/><path stroke="#15C" stroke-linecap="round" d="M6.653 17.084h3.387M12.539 17.084h17.898M0 37.12h6.232M30.768 37.21H37M14.541 11.926h7.797M14.541 8.885h7.797"/><rect width="11.335" height="11.226" x="25.665" y="25.984" fill="#FC0" stroke="#15C" rx="1.029"/><path fill="#FFF" d="M35.931 36.688h-1.038V26.521h1.023c.527 0 .663.298.663.835v8.482c0 .507-.12.85-.648.85z"/><rect width="2.725" height="3.399" x="29.97" y="25.984" fill="#FFF" stroke="#15C" rx=".477"/><path stroke="#FFF" d="M29.76 34.437h2.754"/><path stroke="#15C" d="M5.133 37.21h6.232"/><rect width="11.335" height="11.226" x=".03" y="25.984" fill="#FC0" stroke="#15C" rx="1.029"/><path fill="#FFF" d="M10.296 36.688H9.258V26.521h1.023c.527 0 .662.298.662.835v8.482c0 .507-.12.85-.647.85z"/><rect width="15.264" height="15.117" x="10.928" y="22.093" fill="#FC0" stroke="#15C" rx="1.386"/><path fill="#FFF" d="M24.807 36.703h-1.46V22.585h1.43c.738 0 .933.418.933 1.163v11.777c0 .716-.165 1.178-.903 1.178z"/><rect width="3.673" height="4.577" x="16.724" y="22.093" fill="#FFF" stroke="#15C" rx=".641"/><path stroke="#FFF" stroke-linecap="round" d="M16.453 33.468h3.703"/><rect width="2.725" height="3.399" x="4.32" y="25.984" fill="#FFF" stroke="#15C" rx=".477"/><path stroke="#FFF" stroke-linecap="round" d="M4.124 34.437h2.74"/></g></svg>