<svg xmlns="http://www.w3.org/2000/svg" viewBox="0 0 42 36"><g fill="none" fill-rule="evenodd"><path fill="#D4E4FF" fill-rule="nonzero" stroke="#15C" d="M32.384 8.953H5.412c-1.08 0-1.956.942-1.956 2.104v21.629c0 1.162.876 2.104 1.956 2.104h26.972c1.08 0 1.956-.942 1.956-2.104v-21.63c0-1.161-.875-2.103-1.956-2.103z"/><path fill="#FFF" stroke="#15C" d="M19.231 34.79H9.574V22.587c0-.335.132-.656.366-.893.234-.237.552-.37.883-.37h7.16c.33 0 .648.133.882.37.234.237.366.558.366.893V34.79z"/><path fill="#FC0" stroke="#15C" d="M18.981 1v12.035a4.4 4.4 0 01-1.268 3.094 4.305 4.305 0 01-3.06 1.282 4.305 4.305 0 01-3.061-1.282 4.4 4.4 0 01-1.268-3.094V1h8.657z"/><path fill="#FFF" stroke="#15C" d="M27.597 1v12.035a4.4 4.4 0 01-1.268 3.094 4.305 4.305 0 01-3.06 1.282 4.305 4.305 0 01-3.061-1.282 4.4 4.4 0 01-1.268-3.094V1h8.699-.042z"/><path fill="#FC0" stroke="#15C" d="M36.921 12.74c0 2.525-2.081 4.629-4.62 4.629-2.58.042-4.662-2.062-4.662-4.587V1h4.662c2.664 0 4.578 8.92 4.578 11.74h.042z"/><path fill="#FFF" stroke="#15C" d="M10.24 1v11.698c0 2.567-2.08 4.713-4.578 4.713C3.082 17.41 1 15.307 1 12.698 1 10.005 2.79 1 5.579 1h4.661z"/><path fill="#FFF" fill-rule="nonzero" stroke="#15C" d="M27.39 21.577h-3.497a.879.879 0 00-.874.883v3.535c0 .488.391.884.874.884h3.496a.879.879 0 00.874-.884V22.46a.879.879 0 00-.874-.883z"/><path fill="#FC0" fill-rule="nonzero" stroke="#15C" d="M39.793 21.493H28.846c-.667 0-1.207.546-1.207 1.22V33.78c0 .674.54 1.22 1.207 1.22h10.947C40.46 35 41 34.454 41 33.78V22.713c0-.674-.54-1.22-1.207-1.22z"/><path fill="#FFF" d="M39.751 34.369h-1.248V21.913h1.248c.625 0 .75.337.75 1.01V33.36c0 .631-.125 1.01-.75 1.01z"/><path fill="#FFF" fill-rule="nonzero" stroke="#15C" d="M35.34 21.493H33.3c-.322 0-.583.282-.583.63v2.82c0 .349.26.631.583.631h2.04c.321 0 .582-.282.582-.63v-2.82c0-.349-.26-.631-.583-.631z"/><path stroke="#FFF" stroke-linecap="round" d="M32.467 31.676h3.247"/></g></svg>