<svg xmlns="http://www.w3.org/2000/svg" viewBox="0 0 38 40"><g fill="none" fill-rule="evenodd"><path fill="#D4E4FF" fill-rule="nonzero" d="M15.179 39.805c9.71 1.447 18.745-5.32 20.179-15.115 1.433-9.794-5.276-18.906-14.986-20.352C10.662 2.892 1.627 9.66.193 19.453c-1.434 9.794 5.276 18.906 14.986 20.352z"/><path fill="#D4E4FF" fill-rule="nonzero" stroke="#15C" d="M3.532 8.703v.062L.916 35.245s.046.926.581 1.42a2.586 2.586 0 001.806.586l25.55-.123c1.316 0 1.469-.91 1.454-1.389l-.031-.308-2.922-26.604c-.153-1.435-1.27-1.574-1.576-1.574H5.169c-1.377 0-1.606 1.188-1.637 1.466v-.016z"/><path fill="#D4E4FF" fill-rule="nonzero" stroke="#15C" stroke-linejoin="round" d="M1.069 35.986a1.7 1.7 0 00.428.68 2.586 2.586 0 001.806.585l4.238-.015-3.121-3.24-3.351 1.99h0z"/><path fill="#FFF" fill-rule="nonzero" stroke="#15C" d="M7.54 37.236l21.313-.108c1.316 0 1.469-.91 1.454-1.389l-.031-.308-2.922-26.604c-.153-1.435-1.27-1.574-1.576-1.574H9.3A2.07 2.07 0 007.418 9.35l.123 27.885z"/><path fill="#D4E4FF" fill-rule="nonzero" d="M7.877 36.742h20.578c1.27.016 1.47-.308 1.439-1.095l-1.102-9.784c-8.2 7.407-20.96 4.938-20.96 4.938l.06 5.941h-.015z"/><path stroke="#15C" stroke-linecap="round" d="M11.396 12.793a5.765 5.765 0 001.689 4.05 5.667 5.667 0 004.033 1.66 5.668 5.668 0 004.016-1.704 5.767 5.767 0 001.645-4.068"/><path fill="#FC0" fill-rule="nonzero" stroke="#15C" d="M30.26 12.793l6.473 10.17a1.71 1.71 0 01-.505 2.345l-7.405 4.783a1.671 1.671 0 01-2.326-.509l-6.686-10.54c-1.331-2.098.061-7.762 2.142-8.394.872-.263 5.493-1.343 8.323 2.13l-.015.015z"/><path fill="#FC0" fill-rule="nonzero" stroke="#15C" d="M22.764 12.716a.99.99 0 011.588.638 1.013 1.013 0 01-.203.78.996.996 0 01-1.032.347.995.995 0 01-.584-.428 1.01 1.01 0 01.23-1.337z"/><path fill="#FFA230" fill-rule="nonzero" d="M30.567 14.043l5.676 8.95a1.509 1.509 0 01-.444 2.052l-7.298 4.691c-.688.432-1.3.031-1.729-.663l-1.759-2.778c4.636-3.086 5.63-9.104 5.508-12.299l.046.047z"/><path stroke="#15C" stroke-linecap="round" d="M23.024 1.62l-1.652 2.932M22.749 12.716C12.345 8.734 20.805.4 23.605 7.253l-.856 5.463zM5.077 20.323l-.137 2.84.137-2.84zm-.382 7.901l-.26 5.787.26-5.787zm3.32-26.372l1.408 2.793-1.408-2.793zM14.945 0l.047 4.691L14.946 0z"/></g></svg>