<svg xmlns="http://www.w3.org/2000/svg" viewBox="0 0 46 39"><g fill="none" fill-rule="evenodd"><path fill="#D4E4FF" fill-rule="nonzero" d="M24.46 38.068c10.512 0 19.034-8.522 19.034-19.034C43.494 8.522 34.972 0 24.46 0 13.948 0 5.426 8.522 5.426 19.034c0 10.512 8.522 19.034 19.034 19.034z"/><path fill="#FC0" fill-rule="nonzero" stroke="#15C" d="M15.3 2.651L2.818 4.101a1.04 1.04 0 00-.913 1.153l1.45 12.482c.066.57.582.98 1.153.913l12.482-1.45c.57-.066.98-.582.913-1.153l-1.45-12.482a1.04 1.04 0 00-1.153-.913z"/><path fill="#FFA230" d="M16.65 16.75l-1.39.16-1.58-13.58 1.36-.16c.71-.08.94.3 1.02 1.01l1.32 11.34c.08.68-.03 1.15-.74 1.23h.01z"/><path fill="#FFF" fill-rule="nonzero" stroke="#15C" d="M10.336 3.227l-2.551.296a.48.48 0 00-.422.532l.401 3.454a.48.48 0 00.532.421l2.552-.296a.48.48 0 00.422-.532l-.401-3.454a.48.48 0 00-.533-.421z"/><path stroke="#FFF" stroke-linecap="round" d="M8.32 14.569l3.52-.41"/><path fill="#FFF" fill-rule="nonzero" stroke="#15C" d="M38.766 34.672a5.513 5.513 0 10-1.272-10.952 5.513 5.513 0 001.272 10.952z"/><path fill="#FC0" stroke="#15C" stroke-linejoin="round" d="M37.31 22.18a7.23 7.23 0 017.99 6.19l-14.35 1.67a7.22 7.22 0 016.36-7.85v-.01z"/><path fill="#FFA230" d="M44.75 27.97l-2.6.28c-.47-3.7-4.41-5.86-7.84-4.46 4.19-2.98 9.85-.07 10.44 4.17v.01z"/><path fill="#FFF" stroke="#15C" stroke-linejoin="round" d="M11.98 17.74l12.01-1.4.25 2.12c-10.68 1.47 6.68 14.12 6.85 1.87.32-4.62-1.51-12.38-1.19-13.75.42-1.82 1.27-2.68 1.5-1.92l4.92 16.33s1.98 8.22-5.27 9.06L2.24 33.4c-.92-7.88 3.47-14.92 9.74-15.65v-.01z"/><path fill="#D4E4FF" d="M31.52 5.89c.39-.77-.52-1.2-.37-.7l4.72 15.67s1.9 7.89-5.06 8.69l-2.79.32c3.19-.92 6.75-2.32 5.42-9.12-1.33-6.8-1.39-12.69-1.92-14.86z"/><path fill="#FFF" fill-rule="nonzero" stroke="#15C" d="M12.824 37.685a5.513 5.513 0 10-1.272-10.952 5.513 5.513 0 001.272 10.952z"/><path fill="#FC0" stroke="#15C" stroke-linejoin="round" d="M11.37 25.19a7.23 7.23 0 017.99 6.19L5.01 33.05a7.22 7.22 0 016.36-7.85v-.01z"/><path fill="#FFA230" d="M18.8 30.98l-2.6.28c-.47-3.7-4.41-5.86-7.84-4.46 4.19-2.98 9.85-.07 10.44 4.17v.01z"/><path stroke="#15C" stroke-linecap="round" d="M28.31 5.739l-4.48.52"/><path fill="#FFF" stroke="#15C" stroke-linejoin="round" d="M31.2 3.08l2.95-.34.69 5.94-2.95.34c-1.83.21-3.49-.95-3.68-2.58-.19-1.63 1.15-3.15 2.99-3.36z"/><path stroke="#15C" stroke-linecap="round" d="M12.95 17.619L.69 19.049"/><path fill="#D4E4FF" d="M32.237 3.434l1.502-.174.58 4.993-1.502.174z"/></g></svg>