<svg xmlns="http://www.w3.org/2000/svg" viewBox="0 0 42 36"><g fill="none" fill-rule="evenodd"><path fill="#D4E4FF" d="M21.024 2.951c3.627.003 7.185 1 10.292 2.885a20.082 20.082 0 017.348 7.813 20.272 20.272 0 01-1.084 20.717H4.42a20.274 20.274 0 01-1.084-20.717 20.083 20.083 0 017.348-7.813A19.879 19.879 0 0120.976 2.95h.048z"/><path fill="#FFF" stroke="#15C" d="M13.618 1l14.474.098c.385 0 .754.154 1.027.428.272.275.425.647.425 1.035L29.4 33.293c0 .388-.153.76-.425 1.034a1.447 1.447 0 01-1.027.43l-14.475-.098c-.385 0-.754-.155-1.027-.43a1.47 1.47 0 01-.425-1.034l.145-30.732c0-.388.153-.76.426-1.034A1.447 1.447 0 0113.618 1h0z"/><path fill="#FC0" stroke="#15C" d="M13.472 23.927l-2.469 9.463a1.392 1.392 0 01-1.694.976l-6.826-1.854c-.774-.195-1.21-.927-.968-1.658l2.566-9.756c.484-1.952 4.647-4.244 6.148-3.317.63.39 3.824 2.536 3.292 6.146h-.049zM9.406 19.39c.436.098.678.537.58.976-.096.439-.532.683-.967.585a.824.824 0 01-.483-.371.835.835 0 01-.098-.604c.097-.488.532-.732.968-.586z"/><path stroke="#15C" stroke-linecap="round" d="M9.164 19.342C7.905 13.878 13.52 15 12.068 17.829"/><path fill="#FFA230" d="M12.746 25l-2.13 8c-.145.634-.823.976-1.452.83l-6.487-1.757c-.63-.244-.678-.731-.532-1.366l.629-2.487c4.212 1.073 8.181-1.561 9.972-3.317V25z"/><path stroke="#15C" stroke-linecap="round" d="M20.637 3.098h3.437"/><path fill="#FFF" fill-rule="nonzero" stroke="#15C" d="M20.632 32.289a1.09 1.09 0 001.09-1.09 1.09 1.09 0 00-1.08-1.098 1.09 1.09 0 00-1.09 1.09 1.09 1.09 0 001.08 1.098z"/><path stroke="#15C" stroke-linecap="round" d="M18.41 3.049h.726"/><path fill="#D4E4FF" fill-rule="nonzero" d="M19.088 21.146h-3.389a.923.923 0 00-.92.927v3.415c0 .512.412.927.92.927h3.389c.508 0 .92-.415.92-.927v-3.415a.923.923 0 00-.92-.927zm6.148 0h-3.389a.923.923 0 00-.92.927v3.415c0 .512.412.927.92.927h3.389c.508 0 .92-.415.92-.927v-3.415a.923.923 0 00-.92-.927zM19.088 7.488h-3.389a.923.923 0 00-.92.927v3.414c0 .512.412.927.92.927h3.389c.508 0 .92-.415.92-.927V8.415a.923.923 0 00-.92-.927zm6.148 0h-3.389a.923.923 0 00-.92.927v3.414c0 .512.412.927.92.927h3.389c.508 0 .92-.415.92-.927V8.415a.923.923 0 00-.92-.927zm-6.148 6.488h-3.389a.923.923 0 00-.92.926v3.415c0 .512.412.927.92.927h3.389c.508 0 .92-.415.92-.927v-3.415a.923.923 0 00-.92-.926zm6.148 0h-3.389a.923.923 0 00-.92.926v3.415c0 .512.412.927.92.927h3.389c.508 0 .92-.415.92-.927v-3.415a.923.923 0 00-.92-.926z"/><path fill="#FC0" stroke="#15C" stroke-linejoin="round" d="M27.366 8.659l-3.292 1.17L20.782 11l1.404 3.902h2.517v2.635l-.097 2.683v2.683l-.096 2.731h12.054V14.756h2.614l1.5-3.902-3.195-1.22-3.098-1.122s-.968.342-2.324.537c-1.58.252-3.199.083-4.695-.488v.098z"/><path fill="#FFA230" d="M33.901 25.244h2.227V15.195l-1.162 4.927-1.113 5.073.048.049zm4.89-10.878l1.307-3.317-2.566-.927L34.627 9c-.29.293.194-.341 0 0l4.357 2.537-.145 2.829h-.049z"/><path fill="#FFA230" stroke="#15C" stroke-linejoin="round" d="M34.385 8.561s-.968.341-2.324.537c-1.58.251-3.199.083-4.695-.488 0 0 .63 2.292 3.582 2.244 2.905 0 3.389-2.293 3.389-2.293h.048z"/><path stroke="#15C" stroke-linecap="round" d="M26.882 15.341l2.226-.097"/><path fill="#FFF" fill-rule="nonzero" stroke="#15C" d="M31.916 35c2.968 0 5.374-2.424 5.374-5.415 0-2.99-2.406-5.414-5.374-5.414-2.967 0-5.373 2.424-5.373 5.414 0 2.99 2.406 5.415 5.373 5.415z"/><path stroke="#15C" stroke-linecap="round" stroke-linejoin="round" d="M29.883 29.683l1.694 1.707 3.292-3.268"/><path stroke="#15C" stroke-linecap="round" d="M7.082 14.415L5.05 15m4.599-3.512L8.68 9.439l.968 2.049zm-1.404 1.366l-2.178-1.171 2.178 1.17z"/></g></svg>