<?xml version="1.0" encoding="utf-8"?>
<!-- Generator: Adobe Illustrator 26.0.2, SVG Export Plug-In . SVG Version: 6.00 Build 0)  -->
<svg version="1.1" id="Layer_1" xmlns="http://www.w3.org/2000/svg" xmlns:xlink="http://www.w3.org/1999/xlink" x="0px" y="0px"
	 viewBox="0 0 558.59 98.68" style="enable-background:new 0 0 558.59 98.68;" xml:space="preserve">
<style type="text/css">
	.st0{fill:none;stroke:#FFFFFF;stroke-width:6.394;stroke-miterlimit:10;}
	.st1{fill:#1155CC;}
	.st2{fill:#121CC9;}
	.st3{fill:#145FE2;}
	.st4{fill:#04092D;}
	.st5{fill:#C0C7D1;}
	.st6{fill:#838892;}
	.st7{fill:#E0E6ED;}
	.st8{fill:#F7F9FA;}
	.st9{fill:#FFFFFF;}
	.st10{fill:#141414;stroke:#FFFFFF;stroke-width:2;stroke-miterlimit:10;}
	.st11{fill:#141414;}
</style>
<g>
	<g>
		<path class="st1" d="M94.48,44.4l-6.6-11.43H58.09L52.28,22.9h29.79l-6.6-11.43c-1.77-3.06-5.03-4.94-8.56-4.94H28.89
			c-1.77,0-3.46,0.47-4.94,1.32L47.9,49.34h47.9C95.8,47.63,95.36,45.93,94.48,44.4z"/>
	</g>
	<g>
		<path class="st2" d="M47.9,49.34l-9.45,16.37h27.18l-5.81,10.06H32.64l-8.69,15.05c1.48,0.85,3.18,1.32,4.94,1.32h38.02
			c3.53,0,6.8-1.88,8.56-4.94l19.01-32.92c0.88-1.53,1.32-3.24,1.32-4.94H47.9z"/>
	</g>
	<g>
		<path class="st3" d="M47.9,49.34L23.95,7.86c-1.48,0.85-2.74,2.09-3.62,3.62l-3.56,6.16l-3.03,5.24l24.7,42.83L47.9,49.34z"/>
		<path class="st3" d="M1.32,44.4c-1.77,3.06-1.77,6.83,0,9.89l3.56,6.16l15.45,26.76c0.88,1.53,2.14,2.77,3.62,3.62l8.69-15.05
			L7.94,32.94L1.32,44.4z"/>
	</g>
</g>
<g>
	<path class="st4" d="M122.91,60.43c0.17,2.98,2.28,5.86,6.83,5.86c3.41,0,5.08-1.84,5.08-3.76c0-1.58-1.05-2.89-4.29-3.59
		l-4.99-1.14c-9.28-2.01-12.95-7.26-12.95-13.39c0-7.96,7-14.44,16.72-14.44c12.6,0,16.98,7.88,17.42,12.95l-11.03,2.01
		c-0.35-2.89-2.19-5.34-6.21-5.34c-2.54,0-4.73,1.49-4.73,3.76c0,1.84,1.49,2.89,3.41,3.24l5.78,1.14
		c9.01,1.84,13.39,7.26,13.39,13.65c0,7.44-5.69,14.7-17.33,14.7c-13.65,0-18.03-8.84-18.38-13.65L122.91,60.43z"/>
	<path class="st4" d="M156.95,74.79v-43.5h12.69v4.99c2.19-3.85,7.79-6.3,12.52-6.3c6.21,0,10.68,2.54,12.87,6.83
		c3.41-4.9,7.61-6.83,13.48-6.83c8.23,0,16.1,4.81,16.1,16.63v28.18h-12.87V49.58c0-4.11-2.19-7.35-6.91-7.35s-7.26,3.59-7.26,7.44
		v25.12h-13.13V49.58c0-4.11-2.19-7.35-7-7.35c-4.64,0-7.18,3.59-7.18,7.53v25.03H156.95z"/>
	<path class="st4" d="M246.66,49.67l10.24-1.58c2.36-0.35,3.15-1.49,3.15-2.98c0-2.54-2.19-4.73-6.39-4.73
		c-4.64,0-7.18,3.15-7.44,6.39l-11.55-2.36c0.53-6.21,6.3-14.44,19.08-14.44c14.09,0,19.25,7.88,19.25,16.8v21.27
		c0,3.41,0.44,6.3,0.53,6.74h-11.99c-0.09-0.35-0.44-1.93-0.44-4.9c-2.28,3.68-6.48,6.13-12.25,6.13c-9.54,0-15.05-6.3-15.05-13.22
		C233.8,55.09,239.49,50.72,246.66,49.67z M260.06,57.72v-1.93l-8.23,1.31c-2.8,0.44-4.9,1.75-4.9,4.81c0,2.28,1.49,4.46,5.16,4.46
		C256.03,66.39,260.06,64.46,260.06,57.72z"/>
	<path class="st4" d="M312.22,44.42c-1.49-0.35-2.89-0.44-4.2-0.44c-5.34,0-10.15,3.15-10.15,11.82v18.99h-13.3v-43.5h12.87v5.86
		c2.28-4.9,7.79-6.3,11.29-6.3c1.31,0,2.62,0.17,3.5,0.44V44.42z"/>
	<path class="st4" d="M337.34,31.29h8.49v11.64h-8.49v16.28c0,3.59,1.93,4.55,4.81,4.55c1.4,0,2.71-0.26,3.5-0.44v11.03
		c-0.53,0.26-2.71,1.23-6.92,1.23c-9.01,0-14.53-5.34-14.53-14V42.93h-7.7V31.29h2.19c4.55,0,6.74-3.06,6.74-7.09v-5.6h11.9V31.29z"
		/>
	<path class="st4" d="M360.7,61.22c0.53,4.38,3.85,7.88,9.8,7.88c4.64,0,7.18-2.63,7.18-5.6c0-2.63-1.93-4.64-5.43-5.43l-7.18-1.58
		c-6.56-1.4-10.5-5.86-10.5-11.82c0-7.18,6.74-13.3,14.97-13.3c11.55,0,15.14,7.53,16.02,11.29l-7.26,2.71c-0.35-2.19-2.1-7-8.75-7
		c-4.2,0-7,2.71-7,5.6c0,2.54,1.58,4.38,4.81,5.08l6.83,1.49c7.62,1.66,11.64,6.3,11.64,12.52c0,5.95-4.99,13.04-15.4,13.04
		c-11.55,0-16.45-7.44-17.15-12.25L360.7,61.22z"/>
	<path class="st4" d="M433.7,62.8c-2.36,7.44-9.1,13.3-18.91,13.3c-11.29,0-21.18-8.23-21.18-22.49c0-13.22,9.54-22.23,20.13-22.23
		c12.95,0,20.22,8.93,20.22,22.06c0,1.05-0.09,2.1-0.18,2.63H402.1c0.17,7.53,5.6,12.78,12.69,12.78c6.83,0,10.24-3.76,11.82-8.49
		L433.7,62.8z M425.38,49.41c-0.17-6.04-4.11-10.77-11.55-10.77c-6.92,0-11.12,5.34-11.47,10.77H425.38z"/>
	<path class="st4" d="M444.29,74.79V11.42h8.23v63.37H444.29z"/>
	<path class="st4" d="M465.82,74.79V11.42h8.23v63.37H465.82z"/>
	<path class="st4" d="M524.63,62.8c-2.36,7.44-9.1,13.3-18.91,13.3c-11.29,0-21.18-8.23-21.18-22.49c0-13.22,9.54-22.23,20.13-22.23
		c12.95,0,20.22,8.93,20.22,22.06c0,1.05-0.09,2.1-0.18,2.63h-31.68c0.17,7.53,5.6,12.78,12.69,12.78c6.83,0,10.24-3.76,11.82-8.49
		L524.63,62.8z M516.32,49.41c-0.17-6.04-4.11-10.77-11.55-10.77c-6.92,0-11.12,5.34-11.47,10.77H516.32z"/>
	<path class="st4" d="M558.59,41c-1.22-0.17-2.45-0.26-3.59-0.26c-6.92,0-11.55,3.68-11.55,12.95v21.09h-8.23v-42.1h8.05v7.35
		c3.06-6.48,8.31-8.05,12.6-8.05c1.14,0,2.28,0.17,2.71,0.26V41z"/>
</g>
</svg>
