<svg xmlns="http://www.w3.org/2000/svg" width="168" height="102" viewBox="0 0 168 102"><g fill="none" fill-rule="evenodd"><path fill="#000" fill-rule="nonzero" d="M57.696 64.502c.28.023.535-.073.763-.289.228-.216.386-.466.474-.751.087-.285.103-.554.047-.807-.055-.253-.227-.405-.513-.456-.77-.079-1.353-.367-1.75-.867-.399-.5-.675-1.1-.83-1.803a6.332 6.332 0 01-.14-1.151.392.392 0 01-.005-.108.538.538 0 00-.014-.15 2.713 2.713 0 01-.039-.601c.005-.26.063-.708.174-1.342.111-.634.305-1.517.582-2.648.277-1.131.701-2.648 1.272-4.552.57-1.903 1.3-4.252 2.188-7.046.888-2.794 2.003-6.15 3.345-10.068.065-.614-.127-1.175-.577-1.682a6.218 6.218 0 00-1.578-1.278c-.602-.344-1.171-.57-1.708-.677-.537-.107-.86-.067-.97.12l-.008.131c-.066.614-.18 1.314-.346 2.1a60.05 60.05 0 01-.592 2.519c-.229.894-.48 1.827-.755 2.799s-.557 1.938-.847 2.897c-.446 1.498-.89 3.04-1.33 4.624a115.8 115.8 0 00-1.22 4.783 51.33 51.33 0 01-1.81 3.73 32.39 32.39 0 01-2.303 3.706 21.972 21.972 0 01-2.713 3.127c-.964.913-1.979 1.565-3.045 1.956-1.298.362-2.065.01-2.3-1.058-.198-.9-.156-2.103.126-3.61.283-1.507.703-3.153 1.262-4.94a114.566 114.566 0 011.886-5.515c.698-1.89 1.378-3.67 2.037-5.339l1.071-2.816c.333-.878.622-1.672.867-2.38.244-.709.421-1.3.53-1.776.108-.475.14-.811.097-1.008-.062-.28-.253-.582-.575-.903a7.38 7.38 0 00-1.142-.92 7.436 7.436 0 00-1.42-.734c-.507-.197-.986-.297-1.437-.299-.25.002-.511.013-.783.032-.27.019-.54.045-.809.078-1.244.154-2.61.46-4.1.917a30.634 30.634 0 00-4.524 1.814 34.912 34.912 0 00-4.457 2.628 23.8 23.8 0 00-3.914 3.384 18.611 18.611 0 00-2.906 4.126 12.839 12.839 0 00-1.39 4.783c-.005.433.22.86.676 1.28.456.42.959.77 1.509 1.048.55.278 1.076.48 1.58.606.503.125.8.11.892-.045l.035-.35c-.222-.782-.173-1.697.147-2.747.32-1.05.857-2.14 1.61-3.273.753-1.132 1.693-2.265 2.821-3.4a29.234 29.234 0 013.787-3.195 29.453 29.453 0 014.512-2.635 22.159 22.159 0 014.967-1.674c.17-.021.378-.018.622.01.244.027.345.058.303.092a277.748 277.748 0 00-3.2 6.717 103.05 103.05 0 00-2.775 6.599 64.411 64.411 0 00-1.976 6.045c-.51 1.896-.79 3.583-.84 5.062.013.287.03.566.053.837.022.272.067.562.135.871.149.675.389 1.309.72 1.903a5.399 5.399 0 001.235 1.515c.492.415 1.067.72 1.723.913.656.193 1.399.238 2.228.136.293-.036.58-.093.864-.171.284-.079.578-.166.882-.26.762-.297 1.5-.698 2.215-1.205a19.284 19.284 0 002.1-1.731 25.62 25.62 0 001.965-2.083 58.144 58.144 0 001.813-2.259c-.082 1.107-.072 2.116.028 3.028.051.686.218 1.358.5 2.016a6.107 6.107 0 002.832 3.05c.65.338 1.373.545 2.166.62zm4.463 4.163c.357-.001.523-.117.497-.346a18.053 18.053 0 01-.03-2.987c.073-1.013.201-2.026.385-3.04.183-1.012.4-2.014.65-3.006s.509-1.941.777-2.848l.01.042.367-1.181c.42.674 1.017 1.203 1.79 1.586.775.383 1.83.476 3.166.278a8.377 8.377 0 003.588-1.412 11.478 11.478 0 002.807-2.776 14.855 14.855 0 001.91-3.668c.48-1.341.793-2.69.937-4.047a8.29 8.29 0 00-.13-2.778 7.075 7.075 0 00-.522-1.528 4.343 4.343 0 00-.928-1.28 4.367 4.367 0 00-1.416-.891c-.554-.222-1.2-.33-1.937-.325a5.75 5.75 0 00-1.69.3 8.984 8.984 0 00-1.663.756c-.546.316-1.08.689-1.601 1.118-.522.43-1.002.876-1.442 1.339-.153-.36-.426-.703-.819-1.032a5.157 5.157 0 00-1.302-.797 5.397 5.397 0 00-1.38-.394c-.445-.06-.775-.019-.99.125a32.92 32.92 0 01-.31 2.79c-.141.92-.293 1.855-.453 2.807l-.352 2.009a51.526 51.526 0 00-.3 1.915c-.178.867-.378 1.75-.598 2.651-.22.901-.453 1.804-.697 2.708a228.98 228.98 0 00-.806 3.223 46.848 46.848 0 00-.653 3.16 22.46 22.46 0 00-.312 3.117c-.03 1.037.04 2.054.21 3.051.074.224.32.448.739.671.419.224.85.395 1.295.514.445.119.846.177 1.203.176zm6.324-14.06l-.194.02c-.683.026-1.198-.163-1.542-.568a3.167 3.167 0 01-.69-1.393 4.46 4.46 0 01-.109-1.017c-.006-.029-.003-.044.01-.046.012-.001.015-.016.008-.045l.038-.005a82.413 82.413 0 011.142-5.25c.4-.618.86-1.198 1.38-1.74a10.834 10.834 0 013.412-2.42c.605-.27 1.183-.424 1.737-.463.826-.074 1.332.311 1.518 1.154.128.581.126 1.269-.006 2.062-.132.793-.358 1.62-.68 2.481a19.703 19.703 0 01-1.177 2.567c-.465.85-.973 1.614-1.525 2.296-.552.68-1.132 1.239-1.739 1.673-.606.434-1.199.672-1.777.715l.194-.022zm29.347-.435c.468-.03.896-.126 1.284-.29a6.17 6.17 0 001.055-.564 7.3 7.3 0 00.832-.646c.24-.217.44-.408.604-.573.908-.98 1.693-2.147 2.356-3.502a61.338 61.338 0 001.77-3.95l.57-1.328c.06-.181.014-.356-.135-.526a1.913 1.913 0 00-.563-.429 1.728 1.728 0 00-.662-.2c-.216-.016-.348.036-.396.158l-.46 1.141c-.27.699-.565 1.43-.884 2.192a18.627 18.627 0 01-1.076 2.172 10.46 10.46 0 01-1.369 1.861 5.224 5.224 0 01-1.727 1.255l-.437.054c-.165-.066-.281-.254-.35-.564-.098-.45-.113-.998-.043-1.642.07-.645.168-1.308.293-1.989l.036-.004a39.28 39.28 0 011.057-4.556c.444-1.5.905-2.975 1.386-4.422l-.037.004.576-1.806.01.042.733-2.368c.254-.827.493-1.615.714-2.366.222-.75.41-1.424.566-2.022.156-.597.26-1.059.314-1.383.053-.44-.103-.862-.466-1.266a4.77 4.77 0 00-1.35-1.025 6.007 6.007 0 00-1.606-.582c-.536-.107-.934-.072-1.194.105-.04.612-.113 1.3-.22 2.066a40.392 40.392 0 01-.409 2.393 32.25 32.25 0 01-.61 2.504 61.45 61.45 0 01-.764 2.48l-.621 1.943-.26.856a3.446 3.446 0 00-2.102-1.04 5.031 5.031 0 00-.93-.059c-.31.01-.635.036-.976.078a7.94 7.94 0 00-2.918.947c-.9.502-1.724 1.125-2.472 1.868a14.135 14.135 0 00-1.995 2.503 17.91 17.91 0 00-1.456 2.826 15.411 15.411 0 00-.855 2.839c-.181.933-.24 1.772-.176 2.516.007.143.022.3.047.47.026.171.063.37.112.594.106.479.29.976.554 1.493.263.517.616.987 1.059 1.409.442.422.997.758 1.663 1.008.667.25 1.447.363 2.34.34 1.04-.158 2.016-.655 2.93-1.492a16.466 16.466 0 002.45-2.82l.046.212c.205.929.647 1.691 1.327 2.286.68.596 1.626.862 2.835.799zm-8.126-2.388c-.804.271-1.39.244-1.757-.082-.368-.325-.61-.752-.726-1.28a4.727 4.727 0 01-.098-.952c-.005-.357-.002-.678.01-.965.068-.808.256-1.745.564-2.812a14.373 14.373 0 011.258-3.025 10.29 10.29 0 011.881-2.461c.724-.69 1.557-1.078 2.5-1.166.558-.041.995.07 1.311.33.317.26.55.567.702.92a80.165 80.165 0 00-.572 2.105 42.423 42.423 0 00-.509 2.226l-.176 1.05a21.843 21.843 0 01-.88 1.716 26.66 26.66 0 01-1.132 1.832c-.4.592-.812 1.128-1.236 1.61-.425.48-.805.799-1.14.954zm29.193-.305c.468-.03.896-.128 1.283-.296a6.08 6.08 0 001.053-.578c.314-.217.59-.437.828-.66.238-.223.438-.419.6-.587.904-1.004 1.683-2.2 2.339-3.587a63.203 63.203 0 001.75-4.045l.561-1.36c.06-.186.014-.365-.137-.54a1.936 1.936 0 00-.565-.44 1.707 1.707 0 00-.663-.204c-.216-.018-.348.036-.395.16l-.455 1.17a91.68 91.68 0 01-.872 2.245c-.315.78-.67 1.522-1.065 2.224a10.618 10.618 0 01-1.36 1.906 5.19 5.19 0 01-1.72 1.285l-.437.055c-.092-.077-.16-.217-.205-.418-.127-.577-.107-1.365.06-2.365.167-1 .34-1.94.521-2.823l.209-1.093c.05-.451-.109-.89-.478-1.319a5.463 5.463 0 00-1.31-1.101 4.947 4.947 0 00-1.542-.628c-.524-.112-.92-.091-1.185.06l-.18.38a8.33 8.33 0 01.002 1.622c-.052.614-.13 1.254-.232 1.92-.208.53-.495 1.13-.86 1.798-.364.668-.753 1.31-1.167 1.926a18.04 18.04 0 01-1.261 1.671c-.427.499-.81.83-1.149.99-.812.281-1.405.252-1.78-.086-.373-.338-.62-.781-.741-1.33a5.03 5.03 0 01-.105-.986c-.007-.37-.005-.704.004-1.001.065-.839.25-1.81.557-2.917a15.023 15.023 0 011.256-3.138 10.56 10.56 0 011.892-2.551c.729-.715 1.57-1.118 2.524-1.209.388-.049.716-.009.981.12.266.13.49.302.675.516.185.214.324.448.417.703.094.255.178.496.253.724.02.086.05.171.094.255a.903.903 0 01.084.212c.038.173.171.297.4.372.229.074.459.097.69.068.23-.03.44-.1.627-.213.187-.112.262-.255.224-.428a10.745 10.745 0 00-.407-1.594 6.488 6.488 0 00-.698-1.468 4.01 4.01 0 00-1.068-1.11c-.429-.302-.938-.49-1.529-.563-.31-.05-.62-.07-.93-.06-.31.01-.635.036-.976.078a7.772 7.772 0 00-2.914.969 11.229 11.229 0 00-2.462 1.912 14.307 14.307 0 00-1.983 2.563 18.387 18.387 0 00-1.441 2.895 16 16 0 00-.84 2.907c-.176.957-.23 1.816-.162 2.578.007.147.024.308.05.483.026.174.064.377.115.608.108.49.295 1 .562 1.53.266.53.622 1.01 1.066 1.443.445.433 1.002.778 1.67 1.035.668.256 1.449.372 2.342.348 1.039-.16 2.013-.67 2.923-1.525a16.615 16.615 0 002.435-2.887l.048.216c.21.952.656 1.733 1.34 2.343.683.61 1.63.884 2.839.82zm10.66-1.63c.461-.057.893-.16 1.296-.31.402-.15.761-.33 1.076-.541a7.29 7.29 0 00.83-.64c.239-.215.44-.405.603-.568.9-1 1.67-2.14 2.31-3.423a56.433 56.433 0 001.734-3.824l.606-1.494c.042-.148-.016-.298-.175-.45a1.733 1.733 0 00-.564-.361 1.783 1.783 0 00-.646-.135c-.213-.003-.343.056-.39.177l-.254.547a8.28 8.28 0 00-.244.589l.036-.005c-.27.693-.568 1.403-.894 2.13a19.023 19.023 0 01-1.076 2.068c-.392.65-.84 1.25-1.34 1.798a5.048 5.048 0 01-1.707 1.242l-.364.045c-.17-.094-.28-.252-.328-.475-.092-.419-.102-.998-.028-1.738s.199-1.557.375-2.453c.176-.896.389-1.825.638-2.787s.5-1.888.751-2.779c.252-.89.493-1.694.721-2.41.228-.716.409-1.282.54-1.7l.118-.487.009.042c.168-.48.33-.986.487-1.522a63.51 63.51 0 01.477-1.563c.83-.303 1.666-.55 2.508-.739.842-.19 1.687-.337 2.536-.441.267-.033.535-.06.804-.078.27-.02.554-.033.85-.04a.863.863 0 00.645-.295c.182-.194.314-.44.398-.737.084-.297.117-.602.098-.914a1.708 1.708 0 00-.257-.828c-.249.002-.532.015-.85.04-.318.025-.599.052-.841.082-.873.108-1.73.256-2.572.446a40.92 40.92 0 00-2.527.656c.126-.446.236-.853.329-1.223.093-.37.163-.672.211-.907.03-.434-.143-.85-.517-1.247a5.178 5.178 0 00-1.345-1.017 5.24 5.24 0 00-1.579-.557c-.53-.092-.926-.05-1.186.125-.134 1.993-.567 4.382-1.299 7.166-.847.448-1.666.943-2.455 1.485a34.153 34.153 0 00-2.355 1.773c-.254.203-.393.42-.417.653a.739.739 0 00.166.581c.134.156.326.268.578.337.252.07.526.043.823-.08l.073-.008c.453-.314.904-.613 1.352-.898.448-.284.893-.554 1.335-.81l-.424 1.3c-.325 1.014-.645 2.05-.96 3.105a41.61 41.61 0 00-.814 3.174 38.058 38.058 0 00-.546 3.205 17.702 17.702 0 00-.118 3.195 6.995 6.995 0 00.159 1.399c.215.977.619 1.765 1.211 2.365.593.6 1.39.854 2.39.759zm12.303-1.422c.299-.037.7-.108 1.2-.215.502-.106 1.048-.27 1.64-.49a10.134 10.134 0 001.848-.939 9.769 9.769 0 001.864-1.56 19.123 19.123 0 002.38-3.666 70.753 70.753 0 001.587-3.434l.473-1.167c.086-.306.062-.562-.073-.767a1.318 1.318 0 00-.525-.467 1.048 1.048 0 00-.674-.095.78.78 0 00-.545.4c-.16.434-.352.931-.575 1.49-.222.56-.488 1.185-.797 1.873-.526 1.1-1.106 2.044-1.739 2.832-.632.788-1.275 1.444-1.928 1.968s-1.298.907-1.936 1.149c-.638.241-1.216.35-1.733.325a2.53 2.53 0 01-1.691-.966 4.733 4.733 0 01-.909-1.773c2.066-.847 3.86-2 5.383-3.46 1.522-1.46 2.634-3.208 3.338-5.247l.009.044c.408-.938.523-1.81.346-2.616-.184-.834-.62-1.475-1.307-1.923-.687-.447-1.507-.626-2.46-.538a7.908 7.908 0 00-2.765.785c-.89.436-1.71.958-2.458 1.568a15.695 15.695 0 00-1.98 1.908c-.572.662-1.012 1.279-1.322 1.849-.929 1.712-1.532 3.272-1.81 4.681a9.31 9.31 0 00.112 4.178c.417 1.545 1.235 2.7 2.453 3.466 1.218.766 2.75 1.035 4.594.807zm-2.085-7.372c.088-.711.279-1.512.572-2.402.293-.89.679-1.75 1.156-2.579a11.037 11.037 0 011.707-2.247 5.518 5.518 0 012.293-1.416c.53-.149.846.008.948.472.066.3.046.653-.06 1.058l-.01-.041c-.545 1.635-1.39 3.048-2.534 4.24-1.144 1.19-2.501 2.162-4.072 2.915zM1.928 19.075c1.769 1.302 3.341 2.44 4.896 3.606 3.466 2.6 6.908 5.238 10.412 7.789.502.365 1.64.652 1.887.401.64-.663.49-1.54-.389-2.132-4.525-3.064-9.033-6.157-13.584-9.191-1.64-1.094-1.909-1.07-3.222-.473zm16.29 17.683c.238-1.774-.347-2.493-1.823-2.868-3.206-.823-6.358-1.847-9.533-2.772-.58-.167-1.186-.39-1.773-.37-.519.02-1.028.338-1.541.527.34.377.613.958 1.034 1.104 3.663 1.248 7.353 2.412 11.04 3.602.816.25 1.64.485 2.596.777zm-10.51 5c.663.248 1.314.62 1.998.72 1.938.267 3.881.463 5.835.58.355.018.742-.445 1.117-.689-.28-.411-.522-1.153-.836-1.185-2.272-.225-4.55-.333-6.835-.412-.404-.015-.815.285-1.225.44-.017.183-.038.363-.054.547zM156.756 1.373c-.846 2.027-1.607 3.812-2.34 5.613-1.631 4.014-3.223 8.048-4.913 12.039-.242.571-1.07 1.404-1.41 1.315-.891-.238-1.214-1.068-.765-2.027 2.3-4.957 4.571-9.93 6.91-14.875.842-1.783 1.084-1.9 2.518-2.065zM151.9 24.92c-1.118-1.398-.987-2.315.086-3.397 2.323-2.357 4.498-4.858 6.743-7.285.411-.443.816-.947 1.33-1.23.454-.252 1.055-.24 1.592-.343-.099.499-.033 1.136-.317 1.478-2.499 2.957-5.061 5.856-7.61 8.774-.57.634-1.155 1.26-1.824 2.003zm11.584-1.126c-.441.553-.807 1.208-1.342 1.645a75.753 75.753 0 01-4.702 3.502c-.296.199-.866.001-1.312-.015.027-.496-.147-1.257.105-1.446 1.832-1.362 3.729-2.629 5.647-3.873.338-.221.845-.175 1.277-.255.108.149.219.293.327.442z"/><path fill="#15C" d="M43.09 72.323l105.82-9.34c3.363-.296 6.09 2.182 6.09 5.537v17.464c0 3.355-2.727 6.315-6.09 6.612l-105.82 9.34c-3.363.296-6.09-2.183-6.09-5.538V78.935c0-3.355 2.727-6.315 6.09-6.612z"/><path fill="#FFF" fill-rule="nonzero" d="M53.15 93.976c1.094-.105 1.667-.385 1.85-.486v-2.7c-.13.04-.626.172-1.042.212-1.121.107-1.616-.352-1.616-1.561v-6.355l2.632-.252v-2.896l-2.632.251V76l-2.736.261v2.053c0 1.21-.6 2.195-1.955 2.324L47 80.7v2.897l2.345-.224v6.89c0 2.558 1.46 3.938 3.805 3.714zm12.665-1.007c3.202-.3 5.31-2.494 6.02-5.02l-2.681-.647c-.438 1.43-1.424 2.593-3.34 2.772-1.97.185-3.557-1.2-3.64-3.335l9.744-.911c.027-.06.082-.53.082-1.079 0-4.457-2.409-7.097-6.514-6.713-3.366.315-6.486 3.56-6.486 8.016 0 4.776 3.202 7.255 6.815 6.917zM69 83.467L62 84c.117-1.317 1.347-2.82 3.485-2.982 2.343-.178 3.456 1.02 3.515 2.45zm11.256 7.254v-6.294c0-2.468 1.15-3.977 3.677-4.193a7.286 7.286 0 011.067-.01v-3.201a4.749 4.749 0 00-.87-.007c-1.797.153-3.313 1.124-3.958 2.617v-2.116L77 77.788V91l3.256-.278zm15.693-.044c3.752-.36 6.05-3.755 6.05-7.96 0-4.091-2.087-7.067-5.944-6.697-1.982.19-3.462 1.333-4.043 2.475V70L89 70.288v20.711l2.986-.286v-1.86c.74 1.274 2.14 1.998 3.963 1.824zm-.45-2.694c-1.976.192-3.5-1.36-3.5-4.172 0-2.843 1.524-4.602 3.5-4.794 2.058-.2 3.5 1.272 3.5 4.114 0 2.813-1.469 4.655-3.5 4.852zm15.127.992c2.215-.2 3.56-1.468 4.206-2.586 0 1.117.112 1.68.14 1.763L118 87.88c-.028-.14-.168-.959-.168-2.22v-6.93c0-2.779-1.598-5.069-5.804-4.688-3.365.304-5.495 2.644-5.748 5.073l2.972.419c.14-1.416 1.094-2.62 2.804-2.774 1.794-.162 2.58.712 2.58 1.886 0 .487-.225.908-1.01 1.094l-3.505.861c-2.327.554-4.121 2.091-4.121 4.583 0 2.205 1.766 4.05 4.626 3.792zm.223-2.986c-1.198.103-1.85-.596-1.85-1.426 0-1.005.756-1.573 1.694-1.804L114 82v.553c0 2.389-1.458 3.293-3.151 3.437zm15.407.732v-6.294c0-2.468 1.15-3.977 3.677-4.193a7.286 7.286 0 011.067-.01v-3.201a4.749 4.749 0 00-.87-.007c-1.797.153-3.313 1.124-3.958 2.617v-2.116l-3.172.271V87l3.256-.278zm13.797-.747c1.565-.145 3.13-.976 3.789-2.297 0 .573.055 1.226.11 1.536l3.048-.281c-.055-.51-.137-1.39-.137-2.536V70.999l-3.186.294v8.247c0 1.833-.96 3.21-2.8 3.38-1.923.177-2.692-1.212-2.692-2.93V71.8l-3.185.294v8.79c0 3.093 1.867 5.384 5.053 5.09z"/></g></svg>